# Wavefront OBJ exported by MilkShape 3D

mtllib hills.mtl

v -7.000000 6.000000 -15.000000
v -8.000000 5.000000 -21.000000
v -11.000000 5.000000 -15.000000
v -8.000000 5.000000 -10.000000
v -2.000000 5.000000 -14.000000
v -3.000000 5.000000 -19.000000
v -15.000000 1.000000 -26.000000
v -20.000000 1.000000 -21.000000
v -20.000000 1.000000 -13.000000
v -16.000000 1.000000 -6.000000
v -9.000000 1.000000 -2.000000
v -1.000000 1.000000 -3.000000
v 4.000000 1.000000 -11.000000
v 4.000000 1.000000 -21.000000
v -5.000000 1.000000 -28.000000
v 22.000000 4.000000 9.000000
v 16.000000 4.000000 4.000000
v 7.000000 4.000000 6.000000
v 0.000000 4.000000 10.000000
v -2.000000 4.000000 18.000000
v -1.000000 4.000000 26.000000
v 5.000000 4.000000 33.000000
v 17.000000 4.000000 33.000000
v 24.000000 4.000000 30.000000
v 29.000000 4.000000 23.000000
v 27.000000 4.000000 14.000000
v 16.000000 9.000000 13.000000
v 11.000000 9.000000 13.000000
v 8.000000 9.000000 18.000000
v 8.000000 9.000000 24.000000
v 16.000000 9.000000 26.000000
v 20.000000 9.000000 19.000000
v 13.000000 10.000000 18.000000
v 23.000000 -5.000000 -8.000000
v 28.000000 -3.000000 -14.000000
v 18.000000 -3.000000 -13.000000
v 15.000000 -3.000000 -6.000000
v 23.000000 -3.000000 0.000000
v 30.000000 -3.000000 -5.000000
v 22.000000 1.000000 -28.000000
v 37.000000 1.000000 -9.000000
v 29.000000 0.000000 5.000000
v 15.000000 0.000000 0.000000
v 10.000000 0.000000 -12.000000
v 38.000000 1.000000 11.000000
v 33.000000 1.000000 -18.000000
v 9.000000 1.000000 -32.000000
v -16.000000 1.000000 -33.000000
v -40.000000 -2.000000 0.000000
v -22.000000 1.000000 25.000000
v 14.000000 -2.000000 40.000000
v 33.000000 1.000000 35.000000
v 39.998394 -2.000000 -40.003651
v -40.001587 -2.000000 -40.003651
v -40.001587 -2.000000 39.996956
v 39.998394 -2.000000 39.996956
v 39.996021 -2.000000 0.001751
v 0.004746 -2.000000 -40.004272
# 58 vertices

vt 0.000000 1.000000
# 1 texture coordinates

vn 0.155126 0.982467 -0.103418
vn 0.000000 0.980581 -0.196116
vn -0.194772 0.973862 -0.116863
vn -0.196116 0.980581 0.000000
vn -0.034139 0.990044 0.136558
vn 0.130573 0.988627 0.074613
vn 0.000000 0.813733 0.581238
vn -0.113344 0.884083 0.453376
vn -0.397573 0.851943 0.340777
vn -0.485643 0.874157 0.000000
vn -0.446516 0.893033 0.055815
vn -0.444444 0.888889 -0.111111
vn -0.355478 0.910024 -0.213287
vn -0.261488 0.849837 -0.457604
vn 0.000000 0.813733 -0.581238
vn -0.107298 0.869111 -0.482839
vn 0.375145 0.810314 -0.450174
vn 0.474105 0.821781 -0.316070
vn 0.358979 0.861550 -0.358979
vn 0.521216 0.845528 -0.115826
vn 0.374401 0.887866 0.267429
vn 0.232733 0.806808 0.543044
vn 0.424157 0.872551 0.242375
vn 0.148250 0.963624 0.222375
vn -0.240008 0.960031 0.144005
vn -0.240772 0.963087 -0.120386
vn 0.070143 0.982003 -0.175358
vn 0.203785 0.978167 -0.040757
vn 0.435747 0.857878 0.272342
vn -0.234888 0.880830 0.411054
vn -0.406138 0.913812 0.000000
vn -0.380952 0.904762 -0.190476
vn -0.249513 0.935674 -0.249513
vn -0.105409 0.843274 -0.527046
vn 0.172733 0.885259 -0.431834
vn 0.345468 0.826657 -0.444174
vn 0.473381 0.875755 -0.094676
vn 0.554700 0.832050 0.000000
vn 0.042255 0.940182 0.338043
vn 0.304114 0.836314 0.456172
vn -0.350931 0.912421 0.210559
vn -0.359063 0.910481 0.205179
vn 0.034154 0.939245 0.341544
vn 0.267848 0.956598 0.114792
vn 0.111111 0.888889 -0.444444
vn 0.341882 0.911685 -0.227921
vn -0.170697 0.955904 -0.238976
vn -0.300459 0.951455 0.066769
vn 0.026414 0.964122 0.264143
vn -0.449965 0.887431 0.099992
vn -0.214483 0.929425 -0.300276
vn 0.245307 0.654152 -0.715479
vn 0.363858 0.918308 0.155939
vn 0.367343 0.869628 0.329859
vn -0.151078 0.717620 -0.679851
vn 0.143599 0.893503 -0.425478
vn 0.276988 0.931688 0.235020
vn 0.181724 0.976768 0.113578
vn 0.034161 0.995548 0.087843
vn 0.164399 0.986394 0.000000
vn 0.435127 0.733500 -0.522152
vn 0.107192 0.790541 -0.602955
vn 0.323381 0.889297 -0.323381
vn -0.593173 0.752873 -0.285179
vn -0.122411 0.969085 -0.214219
vn -0.027842 0.974481 -0.222738
vn -0.495762 0.840042 0.220339
vn -0.359617 0.845100 0.395579
vn 0.000000 1.000000 0.000000
vn -0.148340 0.988936 0.000000
vn -0.224231 0.971666 -0.074744
vn -0.108517 0.992159 0.062010
vn -0.085651 0.984986 0.149889
vn -0.099269 0.993912 -0.047796
vn -0.198043 0.975544 -0.095354
vn -0.162073 0.985946 -0.040518
vn -0.142229 0.989674 0.017779
vn -0.146151 0.981299 0.125272
vn 0.000000 0.759257 0.650791
vn -0.296460 0.502693 0.812042
vn 0.296399 0.658665 0.691598
vn 0.000000 0.857493 0.514496
vn 0.228993 0.959588 0.163566
vn 0.248661 0.967013 -0.055258
vn 0.147670 0.915557 -0.374098
vn -0.114189 0.993443 0.005709
vn 0.417470 0.904519 0.086973
vn -0.124028 0.992279 0.000005
vn -0.164390 0.986395 -0.000007
vn -0.000011 0.980576 0.196142
vn 0.348689 0.934419 0.072643
vn 0.761896 0.646579 -0.038095
vn 0.707513 0.706700 0.000042
vn 0.175480 0.981389 -0.077991
vn 0.832476 0.554061 -0.000049
vn 0.095179 0.989939 -0.104697
vn 0.051799 0.984366 -0.168348
vn 0.000005 0.936389 -0.350964
vn 0.014611 0.930784 -0.365278
vn -0.000006 0.919227 -0.393728
# 100 normals

g 0
usemtl 0
s 1
f 33/1/1 32/1/1 27/1/1
f 27/1/2 28/1/2 33/1/2
f 28/1/3 29/1/3 33/1/3
f 29/1/4 30/1/4 33/1/4
f 30/1/5 31/1/5 33/1/5
f 31/1/6 32/1/6 33/1/6
f 22/1/7 23/1/7 31/1/7
f 31/1/8 30/1/8 22/1/8
f 21/1/9 22/1/9 30/1/9
f 30/1/10 29/1/10 21/1/10
f 20/1/11 21/1/11 29/1/11
f 19/1/12 20/1/12 29/1/12
f 29/1/13 28/1/13 19/1/13
f 18/1/14 19/1/14 28/1/14
f 28/1/15 27/1/15 18/1/15
f 17/1/16 18/1/16 27/1/16
f 16/1/17 17/1/17 27/1/17
f 16/1/18 27/1/18 32/1/18
f 32/1/19 26/1/19 16/1/19
f 25/1/20 26/1/20 32/1/20
f 24/1/21 25/1/21 32/1/21
f 23/1/22 24/1/22 31/1/22
f 32/1/23 31/1/23 24/1/23
f 1/1/24 4/1/24 5/1/24
f 1/1/25 3/1/25 4/1/25
f 1/1/26 2/1/26 3/1/26
f 6/1/27 2/1/27 1/1/27
f 1/1/28 5/1/28 6/1/28
f 5/1/29 12/1/29 13/1/29
f 4/1/30 10/1/30 11/1/30
f 3/1/31 8/1/31 9/1/31
f 7/1/32 3/1/32 2/1/32
f 3/1/33 7/1/33 8/1/33
f 15/1/34 7/1/34 2/1/34
f 2/1/35 6/1/35 15/1/35
f 6/1/36 14/1/36 15/1/36
f 14/1/37 6/1/37 5/1/37
f 5/1/38 13/1/38 14/1/38
f 5/1/39 11/1/39 12/1/39
f 11/1/40 5/1/40 4/1/40
f 10/1/41 4/1/41 3/1/41
f 3/1/42 9/1/42 10/1/42
f 34/1/43 35/1/43 36/1/43
f 34/1/44 36/1/44 37/1/44
f 34/1/45 37/1/45 43/1/45
f 43/1/46 38/1/46 34/1/46
f 34/1/47 38/1/47 39/1/47
f 39/1/48 35/1/48 34/1/48
f 40/1/49 36/1/49 35/1/49
f 35/1/50 39/1/50 41/1/50
f 42/1/51 39/1/51 38/1/51
f 17/1/52 38/1/52 43/1/52
f 44/1/53 37/1/53 36/1/53
f 36/1/54 40/1/54 44/1/54
f 43/1/55 18/1/55 17/1/55
f 43/1/45 37/1/45 18/1/45
f 12/1/56 18/1/56 37/1/56
f 12/1/57 37/1/57 44/1/57
f 44/1/58 13/1/58 12/1/58
f 44/1/59 40/1/59 14/1/59
f 44/1/60 14/1/60 13/1/60
f 38/1/61 17/1/61 16/1/61
f 42/1/62 38/1/62 16/1/62
f 16/1/63 26/1/63 42/1/63
f 42/1/64 41/1/64 39/1/64
f 19/1/65 18/1/65 12/1/65
f 19/1/66 12/1/66 11/1/66
f 35/1/67 41/1/67 46/1/67
f 46/1/68 40/1/68 35/1/68
f 14/1/69 40/1/69 47/1/69
f 47/1/69 15/1/69 14/1/69
f 15/1/69 47/1/69 48/1/69
f 7/1/69 15/1/69 48/1/69
f 48/1/69 8/1/69 7/1/69
f 49/1/70 9/1/70 8/1/70
f 8/1/71 48/1/71 49/1/71
f 49/1/72 10/1/72 9/1/72
f 49/1/73 11/1/73 10/1/73
f 11/1/74 49/1/74 50/1/74
f 50/1/75 19/1/75 11/1/75
f 50/1/76 20/1/76 19/1/76
f 50/1/77 21/1/77 20/1/77
f 50/1/78 22/1/78 21/1/78
f 51/1/79 23/1/79 22/1/79
f 22/1/80 50/1/80 51/1/80
f 51/1/81 24/1/81 23/1/81
f 24/1/82 51/1/82 52/1/82
f 52/1/83 25/1/83 24/1/83
f 45/1/84 26/1/84 25/1/84
f 45/1/85 42/1/85 26/1/85
f 41/1/86 42/1/86 45/1/86
f 52/1/87 45/1/87 25/1/87
f 54/1/88 49/1/88 48/1/88
f 55/1/89 50/1/89 49/1/89
f 55/1/90 51/1/90 50/1/90
f 56/1/82 52/1/82 51/1/82
f 45/1/91 52/1/91 56/1/91
f 41/1/92 45/1/92 57/1/92
f 57/1/93 53/1/93 41/1/93
f 53/1/94 46/1/94 41/1/94
f 45/1/95 56/1/95 57/1/95
f 40/1/96 46/1/96 53/1/96
f 53/1/97 47/1/97 40/1/97
f 47/1/98 53/1/98 58/1/98
f 58/1/99 48/1/99 47/1/99
f 58/1/100 54/1/100 48/1/100
# 106 triangles in group

# 106 triangles total

