0
SECTION
2
HEADER
0
ENDSEC
0
SECTION
2
ENTITIES
0
3DFACE
8
0
62
1
10
13.000000
20
10.000000
30
18.000000
11
20.000000
21
9.000000
31
19.000000
12
16.000000
22
9.000000
32
13.000000
13
16.000000
23
9.000000
33
13.000000
0
3DFACE
8
0
62
1
10
16.000000
20
9.000000
30
13.000000
11
11.000000
21
9.000000
31
13.000000
12
13.000000
22
10.000000
32
18.000000
13
13.000000
23
10.000000
33
18.000000
0
3DFACE
8
0
62
1
10
11.000000
20
9.000000
30
13.000000
11
8.000000
21
9.000000
31
18.000000
12
13.000000
22
10.000000
32
18.000000
13
13.000000
23
10.000000
33
18.000000
0
3DFACE
8
0
62
1
10
8.000000
20
9.000000
30
18.000000
11
8.000000
21
9.000000
31
24.000000
12
13.000000
22
10.000000
32
18.000000
13
13.000000
23
10.000000
33
18.000000
0
3DFACE
8
0
62
1
10
8.000000
20
9.000000
30
24.000000
11
16.000000
21
9.000000
31
26.000000
12
13.000000
22
10.000000
32
18.000000
13
13.000000
23
10.000000
33
18.000000
0
3DFACE
8
0
62
1
10
16.000000
20
9.000000
30
26.000000
11
20.000000
21
9.000000
31
19.000000
12
13.000000
22
10.000000
32
18.000000
13
13.000000
23
10.000000
33
18.000000
0
3DFACE
8
0
62
1
10
5.000000
20
4.000000
30
33.000000
11
17.000000
21
4.000000
31
33.000000
12
16.000000
22
9.000000
32
26.000000
13
16.000000
23
9.000000
33
26.000000
0
3DFACE
8
0
62
1
10
16.000000
20
9.000000
30
26.000000
11
8.000000
21
9.000000
31
24.000000
12
5.000000
22
4.000000
32
33.000000
13
5.000000
23
4.000000
33
33.000000
0
3DFACE
8
0
62
1
10
-1.000000
20
4.000000
30
26.000000
11
5.000000
21
4.000000
31
33.000000
12
8.000000
22
9.000000
32
24.000000
13
8.000000
23
9.000000
33
24.000000
0
3DFACE
8
0
62
1
10
8.000000
20
9.000000
30
24.000000
11
8.000000
21
9.000000
31
18.000000
12
-1.000000
22
4.000000
32
26.000000
13
-1.000000
23
4.000000
33
26.000000
0
3DFACE
8
0
62
1
10
-2.000000
20
4.000000
30
18.000000
11
-1.000000
21
4.000000
31
26.000000
12
8.000000
22
9.000000
32
18.000000
13
8.000000
23
9.000000
33
18.000000
0
3DFACE
8
0
62
1
10
0.000000
20
4.000000
30
10.000000
11
-2.000000
21
4.000000
31
18.000000
12
8.000000
22
9.000000
32
18.000000
13
8.000000
23
9.000000
33
18.000000
0
3DFACE
8
0
62
1
10
8.000000
20
9.000000
30
18.000000
11
11.000000
21
9.000000
31
13.000000
12
0.000000
22
4.000000
32
10.000000
13
0.000000
23
4.000000
33
10.000000
0
3DFACE
8
0
62
1
10
7.000000
20
4.000000
30
6.000000
11
0.000000
21
4.000000
31
10.000000
12
11.000000
22
9.000000
32
13.000000
13
11.000000
23
9.000000
33
13.000000
0
3DFACE
8
0
62
1
10
11.000000
20
9.000000
30
13.000000
11
16.000000
21
9.000000
31
13.000000
12
7.000000
22
4.000000
32
6.000000
13
7.000000
23
4.000000
33
6.000000
0
3DFACE
8
0
62
1
10
16.000000
20
4.000000
30
4.000000
11
7.000000
21
4.000000
31
6.000000
12
16.000000
22
9.000000
32
13.000000
13
16.000000
23
9.000000
33
13.000000
0
3DFACE
8
0
62
1
10
22.000000
20
4.000000
30
9.000000
11
16.000000
21
4.000000
31
4.000000
12
16.000000
22
9.000000
32
13.000000
13
16.000000
23
9.000000
33
13.000000
0
3DFACE
8
0
62
1
10
22.000000
20
4.000000
30
9.000000
11
16.000000
21
9.000000
31
13.000000
12
20.000000
22
9.000000
32
19.000000
13
20.000000
23
9.000000
33
19.000000
0
3DFACE
8
0
62
1
10
20.000000
20
9.000000
30
19.000000
11
27.000000
21
4.000000
31
14.000000
12
22.000000
22
4.000000
32
9.000000
13
22.000000
23
4.000000
33
9.000000
0
3DFACE
8
0
62
1
10
29.000000
20
4.000000
30
23.000000
11
27.000000
21
4.000000
31
14.000000
12
20.000000
22
9.000000
32
19.000000
13
20.000000
23
9.000000
33
19.000000
0
3DFACE
8
0
62
1
10
24.000000
20
4.000000
30
30.000000
11
29.000000
21
4.000000
31
23.000000
12
20.000000
22
9.000000
32
19.000000
13
20.000000
23
9.000000
33
19.000000
0
3DFACE
8
0
62
1
10
17.000000
20
4.000000
30
33.000000
11
24.000000
21
4.000000
31
30.000000
12
16.000000
22
9.000000
32
26.000000
13
16.000000
23
9.000000
33
26.000000
0
3DFACE
8
0
62
1
10
20.000000
20
9.000000
30
19.000000
11
16.000000
21
9.000000
31
26.000000
12
24.000000
22
4.000000
32
30.000000
13
24.000000
23
4.000000
33
30.000000
0
3DFACE
8
0
62
1
10
-7.000000
20
6.000000
30
-15.000000
11
-8.000000
21
5.000000
31
-10.000000
12
-2.000000
22
5.000000
32
-14.000000
13
-2.000000
23
5.000000
33
-14.000000
0
3DFACE
8
0
62
1
10
-7.000000
20
6.000000
30
-15.000000
11
-11.000000
21
5.000000
31
-15.000000
12
-8.000000
22
5.000000
32
-10.000000
13
-8.000000
23
5.000000
33
-10.000000
0
3DFACE
8
0
62
1
10
-7.000000
20
6.000000
30
-15.000000
11
-8.000000
21
5.000000
31
-21.000000
12
-11.000000
22
5.000000
32
-15.000000
13
-11.000000
23
5.000000
33
-15.000000
0
3DFACE
8
0
62
1
10
-3.000000
20
5.000000
30
-19.000000
11
-8.000000
21
5.000000
31
-21.000000
12
-7.000000
22
6.000000
32
-15.000000
13
-7.000000
23
6.000000
33
-15.000000
0
3DFACE
8
0
62
1
10
-7.000000
20
6.000000
30
-15.000000
11
-2.000000
21
5.000000
31
-14.000000
12
-3.000000
22
5.000000
32
-19.000000
13
-3.000000
23
5.000000
33
-19.000000
0
3DFACE
8
0
62
1
10
-2.000000
20
5.000000
30
-14.000000
11
-1.000000
21
1.000000
31
-3.000000
12
4.000000
22
1.000000
32
-11.000000
13
4.000000
23
1.000000
33
-11.000000
0
3DFACE
8
0
62
1
10
-8.000000
20
5.000000
30
-10.000000
11
-16.000000
21
1.000000
31
-6.000000
12
-9.000000
22
1.000000
32
-2.000000
13
-9.000000
23
1.000000
33
-2.000000
0
3DFACE
8
0
62
1
10
-11.000000
20
5.000000
30
-15.000000
11
-20.000000
21
1.000000
31
-21.000000
12
-20.000000
22
1.000000
32
-13.000000
13
-20.000000
23
1.000000
33
-13.000000
0
3DFACE
8
0
62
1
10
-15.000000
20
1.000000
30
-26.000000
11
-11.000000
21
5.000000
31
-15.000000
12
-8.000000
22
5.000000
32
-21.000000
13
-8.000000
23
5.000000
33
-21.000000
0
3DFACE
8
0
62
1
10
-11.000000
20
5.000000
30
-15.000000
11
-15.000000
21
1.000000
31
-26.000000
12
-20.000000
22
1.000000
32
-21.000000
13
-20.000000
23
1.000000
33
-21.000000
0
3DFACE
8
0
62
1
10
-5.000000
20
1.000000
30
-28.000000
11
-15.000000
21
1.000000
31
-26.000000
12
-8.000000
22
5.000000
32
-21.000000
13
-8.000000
23
5.000000
33
-21.000000
0
3DFACE
8
0
62
1
10
-8.000000
20
5.000000
30
-21.000000
11
-3.000000
21
5.000000
31
-19.000000
12
-5.000000
22
1.000000
32
-28.000000
13
-5.000000
23
1.000000
33
-28.000000
0
3DFACE
8
0
62
1
10
-3.000000
20
5.000000
30
-19.000000
11
4.000000
21
1.000000
31
-21.000000
12
-5.000000
22
1.000000
32
-28.000000
13
-5.000000
23
1.000000
33
-28.000000
0
3DFACE
8
0
62
1
10
4.000000
20
1.000000
30
-21.000000
11
-3.000000
21
5.000000
31
-19.000000
12
-2.000000
22
5.000000
32
-14.000000
13
-2.000000
23
5.000000
33
-14.000000
0
3DFACE
8
0
62
1
10
-2.000000
20
5.000000
30
-14.000000
11
4.000000
21
1.000000
31
-11.000000
12
4.000000
22
1.000000
32
-21.000000
13
4.000000
23
1.000000
33
-21.000000
0
3DFACE
8
0
62
1
10
-2.000000
20
5.000000
30
-14.000000
11
-9.000000
21
1.000000
31
-2.000000
12
-1.000000
22
1.000000
32
-3.000000
13
-1.000000
23
1.000000
33
-3.000000
0
3DFACE
8
0
62
1
10
-9.000000
20
1.000000
30
-2.000000
11
-2.000000
21
5.000000
31
-14.000000
12
-8.000000
22
5.000000
32
-10.000000
13
-8.000000
23
5.000000
33
-10.000000
0
3DFACE
8
0
62
1
10
-16.000000
20
1.000000
30
-6.000000
11
-8.000000
21
5.000000
31
-10.000000
12
-11.000000
22
5.000000
32
-15.000000
13
-11.000000
23
5.000000
33
-15.000000
0
3DFACE
8
0
62
1
10
-11.000000
20
5.000000
30
-15.000000
11
-20.000000
21
1.000000
31
-13.000000
12
-16.000000
22
1.000000
32
-6.000000
13
-16.000000
23
1.000000
33
-6.000000
0
3DFACE
8
0
62
1
10
23.000000
20
-5.000000
30
-8.000000
11
28.000000
21
-3.000000
31
-14.000000
12
18.000000
22
-3.000000
32
-13.000000
13
18.000000
23
-3.000000
33
-13.000000
0
3DFACE
8
0
62
1
10
23.000000
20
-5.000000
30
-8.000000
11
18.000000
21
-3.000000
31
-13.000000
12
15.000000
22
-3.000000
32
-6.000000
13
15.000000
23
-3.000000
33
-6.000000
0
3DFACE
8
0
62
1
10
23.000000
20
-5.000000
30
-8.000000
11
15.000000
21
-3.000000
31
-6.000000
12
15.000000
22
0.000000
32
0.000000
13
15.000000
23
0.000000
33
0.000000
0
3DFACE
8
0
62
1
10
15.000000
20
0.000000
30
0.000000
11
23.000000
21
-3.000000
31
0.000000
12
23.000000
22
-5.000000
32
-8.000000
13
23.000000
23
-5.000000
33
-8.000000
0
3DFACE
8
0
62
1
10
23.000000
20
-5.000000
30
-8.000000
11
23.000000
21
-3.000000
31
0.000000
12
30.000000
22
-3.000000
32
-5.000000
13
30.000000
23
-3.000000
33
-5.000000
0
3DFACE
8
0
62
1
10
30.000000
20
-3.000000
30
-5.000000
11
28.000000
21
-3.000000
31
-14.000000
12
23.000000
22
-5.000000
32
-8.000000
13
23.000000
23
-5.000000
33
-8.000000
0
3DFACE
8
0
62
1
10
22.000000
20
1.000000
30
-28.000000
11
18.000000
21
-3.000000
31
-13.000000
12
28.000000
22
-3.000000
32
-14.000000
13
28.000000
23
-3.000000
33
-14.000000
0
3DFACE
8
0
62
1
10
28.000000
20
-3.000000
30
-14.000000
11
30.000000
21
-3.000000
31
-5.000000
12
37.000000
22
1.000000
32
-9.000000
13
37.000000
23
1.000000
33
-9.000000
0
3DFACE
8
0
62
1
10
29.000000
20
0.000000
30
5.000000
11
30.000000
21
-3.000000
31
-5.000000
12
23.000000
22
-3.000000
32
0.000000
13
23.000000
23
-3.000000
33
0.000000
0
3DFACE
8
0
62
1
10
16.000000
20
4.000000
30
4.000000
11
23.000000
21
-3.000000
31
0.000000
12
15.000000
22
0.000000
32
0.000000
13
15.000000
23
0.000000
33
0.000000
0
3DFACE
8
0
62
1
10
10.000000
20
0.000000
30
-12.000000
11
15.000000
21
-3.000000
31
-6.000000
12
18.000000
22
-3.000000
32
-13.000000
13
18.000000
23
-3.000000
33
-13.000000
0
3DFACE
8
0
62
1
10
18.000000
20
-3.000000
30
-13.000000
11
22.000000
21
1.000000
31
-28.000000
12
10.000000
22
0.000000
32
-12.000000
13
10.000000
23
0.000000
33
-12.000000
0
3DFACE
8
0
62
1
10
15.000000
20
0.000000
30
0.000000
11
7.000000
21
4.000000
31
6.000000
12
16.000000
22
4.000000
32
4.000000
13
16.000000
23
4.000000
33
4.000000
0
3DFACE
8
0
62
1
10
15.000000
20
0.000000
30
0.000000
11
15.000000
21
-3.000000
31
-6.000000
12
7.000000
22
4.000000
32
6.000000
13
7.000000
23
4.000000
33
6.000000
0
3DFACE
8
0
62
1
10
-1.000000
20
1.000000
30
-3.000000
11
7.000000
21
4.000000
31
6.000000
12
15.000000
22
-3.000000
32
-6.000000
13
15.000000
23
-3.000000
33
-6.000000
0
3DFACE
8
0
62
1
10
-1.000000
20
1.000000
30
-3.000000
11
15.000000
21
-3.000000
31
-6.000000
12
10.000000
22
0.000000
32
-12.000000
13
10.000000
23
0.000000
33
-12.000000
0
3DFACE
8
0
62
1
10
10.000000
20
0.000000
30
-12.000000
11
4.000000
21
1.000000
31
-11.000000
12
-1.000000
22
1.000000
32
-3.000000
13
-1.000000
23
1.000000
33
-3.000000
0
3DFACE
8
0
62
1
10
10.000000
20
0.000000
30
-12.000000
11
22.000000
21
1.000000
31
-28.000000
12
4.000000
22
1.000000
32
-21.000000
13
4.000000
23
1.000000
33
-21.000000
0
3DFACE
8
0
62
1
10
10.000000
20
0.000000
30
-12.000000
11
4.000000
21
1.000000
31
-21.000000
12
4.000000
22
1.000000
32
-11.000000
13
4.000000
23
1.000000
33
-11.000000
0
3DFACE
8
0
62
1
10
23.000000
20
-3.000000
30
0.000000
11
16.000000
21
4.000000
31
4.000000
12
22.000000
22
4.000000
32
9.000000
13
22.000000
23
4.000000
33
9.000000
0
3DFACE
8
0
62
1
10
29.000000
20
0.000000
30
5.000000
11
23.000000
21
-3.000000
31
0.000000
12
22.000000
22
4.000000
32
9.000000
13
22.000000
23
4.000000
33
9.000000
0
3DFACE
8
0
62
1
10
22.000000
20
4.000000
30
9.000000
11
27.000000
21
4.000000
31
14.000000
12
29.000000
22
0.000000
32
5.000000
13
29.000000
23
0.000000
33
5.000000
0
3DFACE
8
0
62
1
10
29.000000
20
0.000000
30
5.000000
11
37.000000
21
1.000000
31
-9.000000
12
30.000000
22
-3.000000
32
-5.000000
13
30.000000
23
-3.000000
33
-5.000000
0
3DFACE
8
0
62
1
10
0.000000
20
4.000000
30
10.000000
11
7.000000
21
4.000000
31
6.000000
12
-1.000000
22
1.000000
32
-3.000000
13
-1.000000
23
1.000000
33
-3.000000
0
3DFACE
8
0
62
1
10
0.000000
20
4.000000
30
10.000000
11
-1.000000
21
1.000000
31
-3.000000
12
-9.000000
22
1.000000
32
-2.000000
13
-9.000000
23
1.000000
33
-2.000000
0
3DFACE
8
0
62
1
10
28.000000
20
-3.000000
30
-14.000000
11
37.000000
21
1.000000
31
-9.000000
12
33.000000
22
1.000000
32
-18.000000
13
33.000000
23
1.000000
33
-18.000000
0
3DFACE
8
0
62
1
10
33.000000
20
1.000000
30
-18.000000
11
22.000000
21
1.000000
31
-28.000000
12
28.000000
22
-3.000000
32
-14.000000
13
28.000000
23
-3.000000
33
-14.000000
0
3DFACE
8
0
62
1
10
4.000000
20
1.000000
30
-21.000000
11
22.000000
21
1.000000
31
-28.000000
12
9.000000
22
1.000000
32
-32.000000
13
9.000000
23
1.000000
33
-32.000000
0
3DFACE
8
0
62
1
10
9.000000
20
1.000000
30
-32.000000
11
-5.000000
21
1.000000
31
-28.000000
12
4.000000
22
1.000000
32
-21.000000
13
4.000000
23
1.000000
33
-21.000000
0
3DFACE
8
0
62
1
10
-5.000000
20
1.000000
30
-28.000000
11
9.000000
21
1.000000
31
-32.000000
12
-16.000000
22
1.000000
32
-33.000000
13
-16.000000
23
1.000000
33
-33.000000
0
3DFACE
8
0
62
1
10
-15.000000
20
1.000000
30
-26.000000
11
-5.000000
21
1.000000
31
-28.000000
12
-16.000000
22
1.000000
32
-33.000000
13
-16.000000
23
1.000000
33
-33.000000
0
3DFACE
8
0
62
1
10
-16.000000
20
1.000000
30
-33.000000
11
-20.000000
21
1.000000
31
-21.000000
12
-15.000000
22
1.000000
32
-26.000000
13
-15.000000
23
1.000000
33
-26.000000
0
3DFACE
8
0
62
1
10
-40.000000
20
-2.000000
30
0.000000
11
-20.000000
21
1.000000
31
-13.000000
12
-20.000000
22
1.000000
32
-21.000000
13
-20.000000
23
1.000000
33
-21.000000
0
3DFACE
8
0
62
1
10
-20.000000
20
1.000000
30
-21.000000
11
-16.000000
21
1.000000
31
-33.000000
12
-40.000000
22
-2.000000
32
0.000000
13
-40.000000
23
-2.000000
33
0.000000
0
3DFACE
8
0
62
1
10
-40.000000
20
-2.000000
30
0.000000
11
-16.000000
21
1.000000
31
-6.000000
12
-20.000000
22
1.000000
32
-13.000000
13
-20.000000
23
1.000000
33
-13.000000
0
3DFACE
8
0
62
1
10
-40.000000
20
-2.000000
30
0.000000
11
-9.000000
21
1.000000
31
-2.000000
12
-16.000000
22
1.000000
32
-6.000000
13
-16.000000
23
1.000000
33
-6.000000
0
3DFACE
8
0
62
1
10
-9.000000
20
1.000000
30
-2.000000
11
-40.000000
21
-2.000000
31
0.000000
12
-22.000000
22
1.000000
32
25.000000
13
-22.000000
23
1.000000
33
25.000000
0
3DFACE
8
0
62
1
10
-22.000000
20
1.000000
30
25.000000
11
0.000000
21
4.000000
31
10.000000
12
-9.000000
22
1.000000
32
-2.000000
13
-9.000000
23
1.000000
33
-2.000000
0
3DFACE
8
0
62
1
10
-22.000000
20
1.000000
30
25.000000
11
-2.000000
21
4.000000
31
18.000000
12
0.000000
22
4.000000
32
10.000000
13
0.000000
23
4.000000
33
10.000000
0
3DFACE
8
0
62
1
10
-22.000000
20
1.000000
30
25.000000
11
-1.000000
21
4.000000
31
26.000000
12
-2.000000
22
4.000000
32
18.000000
13
-2.000000
23
4.000000
33
18.000000
0
3DFACE
8
0
62
1
10
-22.000000
20
1.000000
30
25.000000
11
5.000000
21
4.000000
31
33.000000
12
-1.000000
22
4.000000
32
26.000000
13
-1.000000
23
4.000000
33
26.000000
0
3DFACE
8
0
62
1
10
14.000000
20
-2.000000
30
40.000000
11
17.000000
21
4.000000
31
33.000000
12
5.000000
22
4.000000
32
33.000000
13
5.000000
23
4.000000
33
33.000000
0
3DFACE
8
0
62
1
10
5.000000
20
4.000000
30
33.000000
11
-22.000000
21
1.000000
31
25.000000
12
14.000000
22
-2.000000
32
40.000000
13
14.000000
23
-2.000000
33
40.000000
0
3DFACE
8
0
62
1
10
14.000000
20
-2.000000
30
40.000000
11
24.000000
21
4.000000
31
30.000000
12
17.000000
22
4.000000
32
33.000000
13
17.000000
23
4.000000
33
33.000000
0
3DFACE
8
0
62
1
10
24.000000
20
4.000000
30
30.000000
11
14.000000
21
-2.000000
31
40.000000
12
33.000000
22
1.000000
32
35.000000
13
33.000000
23
1.000000
33
35.000000
0
3DFACE
8
0
62
1
10
33.000000
20
1.000000
30
35.000000
11
29.000000
21
4.000000
31
23.000000
12
24.000000
22
4.000000
32
30.000000
13
24.000000
23
4.000000
33
30.000000
0
3DFACE
8
0
62
1
10
38.000000
20
1.000000
30
11.000000
11
27.000000
21
4.000000
31
14.000000
12
29.000000
22
4.000000
32
23.000000
13
29.000000
23
4.000000
33
23.000000
0
3DFACE
8
0
62
1
10
38.000000
20
1.000000
30
11.000000
11
29.000000
21
0.000000
31
5.000000
12
27.000000
22
4.000000
32
14.000000
13
27.000000
23
4.000000
33
14.000000
0
3DFACE
8
0
62
1
10
37.000000
20
1.000000
30
-9.000000
11
29.000000
21
0.000000
31
5.000000
12
38.000000
22
1.000000
32
11.000000
13
38.000000
23
1.000000
33
11.000000
0
3DFACE
8
0
62
1
10
33.000000
20
1.000000
30
35.000000
11
38.000000
21
1.000000
31
11.000000
12
29.000000
22
4.000000
32
23.000000
13
29.000000
23
4.000000
33
23.000000
0
3DFACE
8
0
62
1
10
-40.001587
20
-2.000000
30
-40.003651
11
-40.000000
21
-2.000000
31
0.000000
12
-16.000000
22
1.000000
32
-33.000000
13
-16.000000
23
1.000000
33
-33.000000
0
3DFACE
8
0
62
1
10
-40.001587
20
-2.000000
30
39.996956
11
-22.000000
21
1.000000
31
25.000000
12
-40.000000
22
-2.000000
32
0.000000
13
-40.000000
23
-2.000000
33
0.000000
0
3DFACE
8
0
62
1
10
-40.001587
20
-2.000000
30
39.996956
11
14.000000
21
-2.000000
31
40.000000
12
-22.000000
22
1.000000
32
25.000000
13
-22.000000
23
1.000000
33
25.000000
0
3DFACE
8
0
62
1
10
39.998394
20
-2.000000
30
39.996956
11
33.000000
21
1.000000
31
35.000000
12
14.000000
22
-2.000000
32
40.000000
13
14.000000
23
-2.000000
33
40.000000
0
3DFACE
8
0
62
1
10
38.000000
20
1.000000
30
11.000000
11
33.000000
21
1.000000
31
35.000000
12
39.998394
22
-2.000000
32
39.996956
13
39.998394
23
-2.000000
33
39.996956
0
3DFACE
8
0
62
1
10
37.000000
20
1.000000
30
-9.000000
11
38.000000
21
1.000000
31
11.000000
12
39.996021
22
-2.000000
32
0.001751
13
39.996021
23
-2.000000
33
0.001751
0
3DFACE
8
0
62
1
10
39.996021
20
-2.000000
30
0.001751
11
39.998394
21
-2.000000
31
-40.003651
12
37.000000
22
1.000000
32
-9.000000
13
37.000000
23
1.000000
33
-9.000000
0
3DFACE
8
0
62
1
10
39.998394
20
-2.000000
30
-40.003651
11
33.000000
21
1.000000
31
-18.000000
12
37.000000
22
1.000000
32
-9.000000
13
37.000000
23
1.000000
33
-9.000000
0
3DFACE
8
0
62
1
10
38.000000
20
1.000000
30
11.000000
11
39.998394
21
-2.000000
31
39.996956
12
39.996021
22
-2.000000
32
0.001751
13
39.996021
23
-2.000000
33
0.001751
0
3DFACE
8
0
62
1
10
22.000000
20
1.000000
30
-28.000000
11
33.000000
21
1.000000
31
-18.000000
12
39.998394
22
-2.000000
32
-40.003651
13
39.998394
23
-2.000000
33
-40.003651
0
3DFACE
8
0
62
1
10
39.998394
20
-2.000000
30
-40.003651
11
9.000000
21
1.000000
31
-32.000000
12
22.000000
22
1.000000
32
-28.000000
13
22.000000
23
1.000000
33
-28.000000
0
3DFACE
8
0
62
1
10
9.000000
20
1.000000
30
-32.000000
11
39.998394
21
-2.000000
31
-40.003651
12
0.004746
22
-2.000000
32
-40.004272
13
0.004746
23
-2.000000
33
-40.004272
0
3DFACE
8
0
62
1
10
0.004746
20
-2.000000
30
-40.004272
11
-16.000000
21
1.000000
31
-33.000000
12
9.000000
22
1.000000
32
-32.000000
13
9.000000
23
1.000000
33
-32.000000
0
3DFACE
8
0
62
1
10
0.004746
20
-2.000000
30
-40.004272
11
-40.001587
21
-2.000000
31
-40.003651
12
-16.000000
22
1.000000
32
-33.000000
13
-16.000000
23
1.000000
33
-33.000000
0
ENDSEC
0
EOF
