0
SECTION
2
HEADER
0
ENDSEC
0
SECTION
2
ENTITIES
0
3DFACE
8
0
62
1
10
10.000000
20
-4.000000
30
-15.000000
11
1.000000
21
-3.000000
31
-22.000000
12
0.000000
22
-1.000000
32
-10.000000
13
0.000000
23
-1.000000
33
-10.000000
0
3DFACE
8
0
62
1
10
-10.000000
20
-2.000000
30
-17.000000
11
0.000000
21
-1.000000
31
-10.000000
12
1.000000
22
-3.000000
32
-22.000000
13
1.000000
23
-3.000000
33
-22.000000
0
3DFACE
8
0
62
1
10
0.000000
20
-1.000000
30
-10.000000
11
-10.000000
21
-2.000000
31
-17.000000
12
-11.000000
22
-4.000000
32
-3.000000
13
-11.000000
23
-4.000000
33
-3.000000
0
3DFACE
8
0
62
1
10
0.000000
20
-1.000000
30
-10.000000
11
-11.000000
21
-4.000000
31
-3.000000
12
2.000000
22
-1.000000
32
0.000000
13
2.000000
23
-1.000000
33
0.000000
0
3DFACE
8
0
62
1
10
10.000000
20
-4.000000
30
-15.000000
11
0.000000
21
-1.000000
31
-10.000000
12
11.000000
22
-4.000000
32
-4.000000
13
11.000000
23
-4.000000
33
-4.000000
0
3DFACE
8
0
62
1
10
0.000000
20
-1.000000
30
-10.000000
11
2.000000
21
-1.000000
31
0.000000
12
11.000000
22
-4.000000
32
-4.000000
13
11.000000
23
-4.000000
33
-4.000000
0
3DFACE
8
0
62
1
10
-13.000000
20
-1.000000
30
7.000000
11
-5.000000
21
-1.000000
31
8.000000
12
-11.000000
22
-4.000000
32
-3.000000
13
-11.000000
23
-4.000000
33
-3.000000
0
3DFACE
8
0
62
1
10
-5.000000
20
-1.000000
30
8.000000
11
2.000000
21
-1.000000
31
0.000000
12
-11.000000
22
-4.000000
32
-3.000000
13
-11.000000
23
-4.000000
33
-3.000000
0
3DFACE
8
0
62
1
10
-16.000000
20
1.000000
30
18.000000
11
-9.000000
21
1.000000
31
18.000000
12
-13.000000
22
-1.000000
32
7.000000
13
-13.000000
23
-1.000000
33
7.000000
0
3DFACE
8
0
62
1
10
-5.000000
20
-1.000000
30
8.000000
11
-13.000000
21
-1.000000
31
7.000000
12
-9.000000
22
1.000000
32
18.000000
13
-9.000000
23
1.000000
33
18.000000
0
3DFACE
8
0
62
1
10
-9.000000
20
1.000000
30
18.000000
11
-16.000000
21
1.000000
31
18.000000
12
-10.000000
22
3.000000
32
27.000000
13
-10.000000
23
3.000000
33
27.000000
0
3DFACE
8
0
62
1
10
-17.000000
20
3.000000
30
27.000000
11
-10.000000
21
3.000000
31
27.000000
12
-16.000000
22
1.000000
32
18.000000
13
-16.000000
23
1.000000
33
18.000000
0
3DFACE
8
0
62
1
10
-10.000000
20
3.000000
30
27.000000
11
-17.000000
21
3.000000
31
27.000000
12
-9.000000
22
4.000000
32
37.000000
13
-9.000000
23
4.000000
33
37.000000
0
3DFACE
8
0
62
1
10
-15.000000
20
4.000000
30
38.000000
11
-9.000000
21
4.000000
31
37.000000
12
-17.000000
22
3.000000
32
27.000000
13
-17.000000
23
3.000000
33
27.000000
0
3DFACE
8
0
62
1
10
-9.000000
20
4.000000
30
37.000000
11
-15.000000
21
4.000000
31
38.000000
12
-5.000000
22
6.000000
32
46.000000
13
-5.000000
23
6.000000
33
46.000000
0
3DFACE
8
0
62
1
10
-10.000000
20
6.000000
30
48.000000
11
-5.000000
21
6.000000
31
46.000000
12
-15.000000
22
4.000000
32
38.000000
13
-15.000000
23
4.000000
33
38.000000
0
3DFACE
8
0
62
1
10
-5.000000
20
6.000000
30
46.000000
11
-10.000000
21
6.000000
31
48.000000
12
-1.000000
22
8.000000
32
64.000000
13
-1.000000
23
8.000000
33
64.000000
0
3DFACE
8
0
62
1
10
-6.000000
20
8.000000
30
64.000000
11
-1.000000
21
8.000000
31
64.000000
12
-10.000000
22
6.000000
32
48.000000
13
-10.000000
23
6.000000
33
48.000000
0
3DFACE
8
0
62
1
10
12.000000
20
0.000000
30
-24.000000
11
1.000000
21
-3.000000
31
-22.000000
12
10.000000
22
-4.000000
32
-15.000000
13
10.000000
23
-4.000000
33
-15.000000
0
3DFACE
8
0
62
1
10
1.000000
20
-3.000000
30
-22.000000
11
12.000000
21
0.000000
31
-24.000000
12
8.000000
22
1.000000
32
-29.000000
13
8.000000
23
1.000000
33
-29.000000
0
3DFACE
8
0
62
1
10
15.000000
20
0.000000
30
-33.000000
11
8.000000
21
1.000000
31
-29.000000
12
12.000000
22
0.000000
32
-24.000000
13
12.000000
23
0.000000
33
-24.000000
0
3DFACE
8
0
62
1
10
8.000000
20
1.000000
30
-29.000000
11
15.000000
21
0.000000
31
-33.000000
12
11.000000
22
0.000000
32
-38.000000
13
11.000000
23
0.000000
33
-38.000000
0
3DFACE
8
0
62
1
10
23.000000
20
-5.000000
30
-40.000000
11
11.000000
21
0.000000
31
-38.000000
12
15.000000
22
0.000000
32
-33.000000
13
15.000000
23
0.000000
33
-33.000000
0
3DFACE
8
0
62
1
10
11.000000
20
0.000000
30
-38.000000
11
23.000000
21
-5.000000
31
-40.000000
12
18.000000
22
-5.000000
32
-44.000000
13
18.000000
23
-5.000000
33
-44.000000
0
3DFACE
8
0
62
1
10
26.000000
20
-7.000000
30
-48.000000
11
18.000000
21
-5.000000
31
-44.000000
12
23.000000
22
-5.000000
32
-40.000000
13
23.000000
23
-5.000000
33
-40.000000
0
3DFACE
8
0
62
1
10
18.000000
20
-5.000000
30
-44.000000
11
26.000000
21
-7.000000
31
-48.000000
12
20.357367
22
-7.000000
32
-49.880878
13
20.357367
23
-7.000000
33
-49.880878
0
3DFACE
8
0
62
1
10
26.000000
20
-9.000000
30
-57.000000
11
20.357367
21
-7.000000
31
-49.880878
12
26.000000
22
-7.000000
32
-48.000000
13
26.000000
23
-7.000000
33
-48.000000
0
3DFACE
8
0
62
1
10
20.357367
20
-7.000000
30
-49.880878
11
26.000000
21
-9.000000
31
-57.000000
12
21.768026
22
-9.000000
32
-56.529781
13
21.768026
23
-9.000000
33
-56.529781
0
3DFACE
8
0
62
1
10
25.000000
20
-9.000000
30
-64.000000
11
21.768026
21
-9.000000
31
-56.529781
12
26.000000
22
-9.000000
32
-57.000000
13
26.000000
23
-9.000000
33
-57.000000
0
3DFACE
8
0
62
1
10
21.768026
20
-9.000000
30
-56.529781
11
25.000000
21
-9.000000
31
-64.000000
12
18.000000
22
-9.000000
32
-64.000000
13
18.000000
23
-9.000000
33
-64.000000
0
3DFACE
8
0
62
1
10
18.000000
20
-9.000000
30
-64.000000
11
0.000000
21
31.000000
31
-64.000000
12
3.000000
22
6.000000
32
-52.000000
13
3.000000
23
6.000000
33
-52.000000
0
3DFACE
8
0
62
1
10
21.768026
20
-9.000000
30
-56.529781
11
18.000000
21
-9.000000
31
-64.000000
12
3.000000
22
6.000000
32
-52.000000
13
3.000000
23
6.000000
33
-52.000000
0
3DFACE
8
0
62
1
10
20.357367
20
-7.000000
30
-49.880878
11
21.768026
21
-9.000000
31
-56.529781
12
3.000000
22
6.000000
32
-52.000000
13
3.000000
23
6.000000
33
-52.000000
0
3DFACE
8
0
62
1
10
18.000000
20
-5.000000
30
-44.000000
11
20.357367
21
-7.000000
31
-49.880878
12
3.000000
22
6.000000
32
-52.000000
13
3.000000
23
6.000000
33
-52.000000
0
3DFACE
8
0
62
1
10
18.000000
20
-5.000000
30
-44.000000
11
3.000000
21
6.000000
31
-52.000000
12
-1.000000
22
6.000000
32
-42.000000
13
-1.000000
23
6.000000
33
-42.000000
0
3DFACE
8
0
62
1
10
11.000000
20
0.000000
30
-38.000000
11
18.000000
21
-5.000000
31
-44.000000
12
-1.000000
22
6.000000
32
-42.000000
13
-1.000000
23
6.000000
33
-42.000000
0
3DFACE
8
0
62
1
10
8.000000
20
1.000000
30
-29.000000
11
11.000000
21
0.000000
31
-38.000000
12
-1.000000
22
6.000000
32
-42.000000
13
-1.000000
23
6.000000
33
-42.000000
0
3DFACE
8
0
62
1
10
8.000000
20
1.000000
30
-29.000000
11
-1.000000
21
6.000000
31
-42.000000
12
-11.000000
22
6.000000
32
-35.000000
13
-11.000000
23
6.000000
33
-35.000000
0
3DFACE
8
0
62
1
10
1.000000
20
-3.000000
30
-22.000000
11
8.000000
21
1.000000
31
-29.000000
12
-11.000000
22
6.000000
32
-35.000000
13
-11.000000
23
6.000000
33
-35.000000
0
3DFACE
8
0
62
1
10
1.000000
20
-3.000000
30
-22.000000
11
-11.000000
21
6.000000
31
-35.000000
12
-22.000000
22
8.000000
32
-26.000000
13
-22.000000
23
8.000000
33
-26.000000
0
3DFACE
8
0
62
1
10
-22.000000
20
8.000000
30
-26.000000
11
-10.000000
21
-2.000000
31
-17.000000
12
1.000000
22
-3.000000
32
-22.000000
13
1.000000
23
-3.000000
33
-22.000000
0
3DFACE
8
0
62
1
10
-10.000000
20
-2.000000
30
-17.000000
11
-22.000000
21
8.000000
31
-26.000000
12
-23.000000
22
8.000000
32
-14.000000
13
-23.000000
23
8.000000
33
-14.000000
0
3DFACE
8
0
62
1
10
-23.000000
20
8.000000
30
-14.000000
11
-11.000000
21
-4.000000
31
-3.000000
12
-10.000000
22
-2.000000
32
-17.000000
13
-10.000000
23
-2.000000
33
-17.000000
0
3DFACE
8
0
62
1
10
-11.000000
20
-4.000000
30
-3.000000
11
-23.000000
21
8.000000
31
-14.000000
12
-18.000000
22
6.000000
32
-4.000000
13
-18.000000
23
6.000000
33
-4.000000
0
3DFACE
8
0
62
1
10
-18.000000
20
6.000000
30
-4.000000
11
-13.000000
21
-1.000000
31
7.000000
12
-11.000000
22
-4.000000
32
-3.000000
13
-11.000000
23
-4.000000
33
-3.000000
0
3DFACE
8
0
62
1
10
-13.000000
20
-1.000000
30
7.000000
11
-18.000000
21
6.000000
31
-4.000000
12
-17.000000
22
13.000000
32
5.000000
13
-17.000000
23
13.000000
33
5.000000
0
3DFACE
8
0
62
1
10
-17.000000
20
13.000000
30
5.000000
11
-16.000000
21
1.000000
31
18.000000
12
-13.000000
22
-1.000000
32
7.000000
13
-13.000000
23
-1.000000
33
7.000000
0
3DFACE
8
0
62
1
10
-16.000000
20
1.000000
30
18.000000
11
-17.000000
21
13.000000
31
5.000000
12
-22.000000
22
13.000000
32
12.000000
13
-22.000000
23
13.000000
33
12.000000
0
3DFACE
8
0
62
1
10
-16.000000
20
1.000000
30
18.000000
11
-22.000000
21
13.000000
31
12.000000
12
-25.000000
22
17.000000
32
23.000000
13
-25.000000
23
17.000000
33
23.000000
0
3DFACE
8
0
62
1
10
-25.000000
20
17.000000
30
23.000000
11
-17.000000
21
3.000000
31
27.000000
12
-16.000000
22
1.000000
32
18.000000
13
-16.000000
23
1.000000
33
18.000000
0
3DFACE
8
0
62
1
10
-17.000000
20
3.000000
30
27.000000
11
-25.000000
21
17.000000
31
23.000000
12
-24.000000
22
18.000000
32
41.000000
13
-24.000000
23
18.000000
33
41.000000
0
3DFACE
8
0
62
1
10
-24.000000
20
18.000000
30
41.000000
11
-15.000000
21
4.000000
31
38.000000
12
-17.000000
22
3.000000
32
27.000000
13
-17.000000
23
3.000000
33
27.000000
0
3DFACE
8
0
62
1
10
-15.000000
20
4.000000
30
38.000000
11
-24.000000
21
18.000000
31
41.000000
12
-19.000000
22
20.000000
32
49.000000
13
-19.000000
23
20.000000
33
49.000000
0
3DFACE
8
0
62
1
10
-19.000000
20
20.000000
30
49.000000
11
-10.000000
21
6.000000
31
48.000000
12
-15.000000
22
4.000000
32
38.000000
13
-15.000000
23
4.000000
33
38.000000
0
3DFACE
8
0
62
1
10
-10.000000
20
6.000000
30
48.000000
11
-19.000000
21
20.000000
31
49.000000
12
-11.000000
22
53.000000
32
64.000000
13
-11.000000
23
53.000000
33
64.000000
0
3DFACE
8
0
62
1
10
-11.000000
20
53.000000
30
64.000000
11
-6.000000
21
8.000000
31
64.000000
12
-10.000000
22
6.000000
32
48.000000
13
-10.000000
23
6.000000
33
48.000000
0
3DFACE
8
0
62
1
10
36.000000
20
29.000000
30
-64.000000
11
25.000000
21
-9.000000
31
-64.000000
12
26.000000
22
-9.000000
32
-57.000000
13
26.000000
23
-9.000000
33
-57.000000
0
3DFACE
8
0
62
1
10
38.000000
20
6.000000
30
-50.000000
11
36.000000
21
29.000000
31
-64.000000
12
26.000000
22
-9.000000
32
-57.000000
13
26.000000
23
-9.000000
33
-57.000000
0
3DFACE
8
0
62
1
10
38.000000
20
6.000000
30
-50.000000
11
26.000000
21
-9.000000
31
-57.000000
12
26.000000
22
-7.000000
32
-48.000000
13
26.000000
23
-7.000000
33
-48.000000
0
3DFACE
8
0
62
1
10
35.000000
20
8.000000
30
-38.000000
11
38.000000
21
6.000000
31
-50.000000
12
26.000000
22
-7.000000
32
-48.000000
13
26.000000
23
-7.000000
33
-48.000000
0
3DFACE
8
0
62
1
10
35.000000
20
8.000000
30
-38.000000
11
26.000000
21
-7.000000
31
-48.000000
12
23.000000
22
-5.000000
32
-40.000000
13
23.000000
23
-5.000000
33
-40.000000
0
3DFACE
8
0
62
1
10
31.000000
20
7.000000
30
-29.000000
11
35.000000
21
8.000000
31
-38.000000
12
23.000000
22
-5.000000
32
-40.000000
13
23.000000
23
-5.000000
33
-40.000000
0
3DFACE
8
0
62
1
10
31.000000
20
7.000000
30
-29.000000
11
23.000000
21
-5.000000
31
-40.000000
12
15.000000
22
0.000000
32
-33.000000
13
15.000000
23
0.000000
33
-33.000000
0
3DFACE
8
0
62
1
10
23.000000
20
7.000000
30
-19.000000
11
31.000000
21
7.000000
31
-29.000000
12
15.000000
22
0.000000
32
-33.000000
13
15.000000
23
0.000000
33
-33.000000
0
3DFACE
8
0
62
1
10
23.000000
20
7.000000
30
-19.000000
11
15.000000
21
0.000000
31
-33.000000
12
12.000000
22
0.000000
32
-24.000000
13
12.000000
23
0.000000
33
-24.000000
0
3DFACE
8
0
62
1
10
21.000000
20
7.000000
30
-11.000000
11
23.000000
21
7.000000
31
-19.000000
12
12.000000
22
0.000000
32
-24.000000
13
12.000000
23
0.000000
33
-24.000000
0
3DFACE
8
0
62
1
10
21.000000
20
7.000000
30
-11.000000
11
12.000000
21
0.000000
31
-24.000000
12
10.000000
22
-4.000000
32
-15.000000
13
10.000000
23
-4.000000
33
-15.000000
0
3DFACE
8
0
62
1
10
10.000000
20
-4.000000
30
-15.000000
11
11.000000
21
-4.000000
31
-4.000000
12
21.000000
22
7.000000
32
-11.000000
13
21.000000
23
7.000000
33
-11.000000
0
3DFACE
8
0
62
1
10
18.000000
20
9.000000
30
0.000000
11
21.000000
21
7.000000
31
-11.000000
12
11.000000
22
-4.000000
32
-4.000000
13
11.000000
23
-4.000000
33
-4.000000
0
3DFACE
8
0
62
1
10
11.000000
20
16.000000
30
4.000000
11
18.000000
21
9.000000
31
0.000000
12
11.000000
22
-4.000000
32
-4.000000
13
11.000000
23
-4.000000
33
-4.000000
0
3DFACE
8
0
62
1
10
11.000000
20
16.000000
30
4.000000
11
11.000000
21
-4.000000
31
-4.000000
12
2.000000
22
-1.000000
32
0.000000
13
2.000000
23
-1.000000
33
0.000000
0
3DFACE
8
0
62
1
10
0.000000
20
21.000000
30
14.000000
11
11.000000
21
16.000000
31
4.000000
12
2.000000
22
-1.000000
32
0.000000
13
2.000000
23
-1.000000
33
0.000000
0
3DFACE
8
0
62
1
10
2.000000
20
-1.000000
30
0.000000
11
-5.000000
21
-1.000000
31
8.000000
12
0.000000
22
21.000000
32
14.000000
13
0.000000
23
21.000000
33
14.000000
0
3DFACE
8
0
62
1
10
-5.000000
20
-1.000000
30
8.000000
11
-9.000000
21
1.000000
31
18.000000
12
0.000000
22
21.000000
32
14.000000
13
0.000000
23
21.000000
33
14.000000
0
3DFACE
8
0
62
1
10
-5.000000
20
23.000000
30
24.000000
11
0.000000
21
21.000000
31
14.000000
12
-9.000000
22
1.000000
32
18.000000
13
-9.000000
23
1.000000
33
18.000000
0
3DFACE
8
0
62
1
10
-9.000000
20
1.000000
30
18.000000
11
-10.000000
21
3.000000
31
27.000000
12
-5.000000
22
23.000000
32
24.000000
13
-5.000000
23
23.000000
33
24.000000
0
3DFACE
8
0
62
1
10
-10.000000
20
3.000000
30
27.000000
11
-3.000000
21
21.000000
31
35.000000
12
-5.000000
22
23.000000
32
24.000000
13
-5.000000
23
23.000000
33
24.000000
0
3DFACE
8
0
62
1
10
-10.000000
20
3.000000
30
27.000000
11
-9.000000
21
4.000000
31
37.000000
12
-3.000000
22
21.000000
32
35.000000
13
-3.000000
23
21.000000
33
35.000000
0
3DFACE
8
0
62
1
10
-9.000000
20
4.000000
30
37.000000
11
-5.000000
21
6.000000
31
46.000000
12
-3.000000
22
21.000000
32
35.000000
13
-3.000000
23
21.000000
33
35.000000
0
3DFACE
8
0
62
1
10
2.000000
20
21.000000
30
43.000000
11
-3.000000
21
21.000000
31
35.000000
12
-5.000000
22
6.000000
32
46.000000
13
-5.000000
23
6.000000
33
46.000000
0
3DFACE
8
0
62
1
10
-5.000000
20
6.000000
30
46.000000
11
-1.000000
21
8.000000
31
64.000000
12
3.000000
22
52.000000
32
64.000000
13
3.000000
23
52.000000
33
64.000000
0
3DFACE
8
0
62
1
10
3.000000
20
52.000000
30
64.000000
11
2.000000
21
21.000000
31
43.000000
12
-5.000000
22
6.000000
32
46.000000
13
-5.000000
23
6.000000
33
46.000000
0
3DFACE
8
0
62
1
10
2.000000
20
21.000000
30
43.000000
11
3.000000
21
52.000000
31
64.000000
12
13.000000
22
29.000000
32
48.000000
13
13.000000
23
29.000000
33
48.000000
0
3DFACE
8
0
62
1
10
13.000000
20
29.000000
30
48.000000
11
11.000000
21
24.000000
31
41.000000
12
2.000000
22
21.000000
32
43.000000
13
2.000000
23
21.000000
33
43.000000
0
3DFACE
8
0
62
1
10
11.000000
20
24.000000
30
41.000000
11
9.000000
21
21.000000
31
34.000000
12
2.000000
22
21.000000
32
43.000000
13
2.000000
23
21.000000
33
43.000000
0
3DFACE
8
0
62
1
10
-3.000000
20
21.000000
30
35.000000
11
2.000000
21
21.000000
31
43.000000
12
9.000000
22
21.000000
32
34.000000
13
9.000000
23
21.000000
33
34.000000
0
3DFACE
8
0
62
1
10
9.000000
20
21.000000
30
34.000000
11
-5.000000
21
23.000000
31
24.000000
12
-3.000000
22
21.000000
32
35.000000
13
-3.000000
23
21.000000
33
35.000000
0
3DFACE
8
0
62
1
10
9.000000
20
21.000000
30
34.000000
11
9.000000
21
18.000000
31
27.000000
12
-5.000000
22
23.000000
32
24.000000
13
-5.000000
23
23.000000
33
24.000000
0
3DFACE
8
0
62
1
10
0.000000
20
21.000000
30
14.000000
11
-5.000000
21
23.000000
31
24.000000
12
9.000000
22
18.000000
32
27.000000
13
9.000000
23
18.000000
33
27.000000
0
3DFACE
8
0
62
1
10
9.000000
20
18.000000
30
27.000000
11
13.000000
21
15.000000
31
17.000000
12
0.000000
22
21.000000
32
14.000000
13
0.000000
23
21.000000
33
14.000000
0
3DFACE
8
0
62
1
10
11.000000
20
16.000000
30
4.000000
11
0.000000
21
21.000000
31
14.000000
12
13.000000
22
15.000000
32
17.000000
13
13.000000
23
15.000000
33
17.000000
0
3DFACE
8
0
62
1
10
13.000000
20
15.000000
30
17.000000
11
20.000000
21
12.000000
31
12.000000
12
11.000000
22
16.000000
32
4.000000
13
11.000000
23
16.000000
33
4.000000
0
3DFACE
8
0
62
1
10
18.000000
20
9.000000
30
0.000000
11
11.000000
21
16.000000
31
4.000000
12
20.000000
22
12.000000
32
12.000000
13
20.000000
23
12.000000
33
12.000000
0
3DFACE
8
0
62
1
10
20.000000
20
12.000000
30
12.000000
11
29.000000
21
10.000000
31
9.000000
12
18.000000
22
9.000000
32
0.000000
13
18.000000
23
9.000000
33
0.000000
0
3DFACE
8
0
62
1
10
29.000000
20
10.000000
30
9.000000
11
40.000000
21
10.000000
31
4.000000
12
18.000000
22
9.000000
32
0.000000
13
18.000000
23
9.000000
33
0.000000
0
3DFACE
8
0
62
1
10
21.000000
20
7.000000
30
-11.000000
11
18.000000
21
9.000000
31
0.000000
12
40.000000
22
10.000000
32
4.000000
13
40.000000
23
10.000000
33
4.000000
0
3DFACE
8
0
62
1
10
40.000000
20
10.000000
30
4.000000
11
51.000000
21
8.000000
31
-10.000000
12
21.000000
22
7.000000
32
-11.000000
13
21.000000
23
7.000000
33
-11.000000
0
3DFACE
8
0
62
1
10
23.000000
20
7.000000
30
-19.000000
11
21.000000
21
7.000000
31
-11.000000
12
51.000000
22
8.000000
32
-10.000000
13
51.000000
23
8.000000
33
-10.000000
0
3DFACE
8
0
62
1
10
51.000000
20
8.000000
30
-10.000000
11
51.000000
21
8.000000
31
-27.000000
12
23.000000
22
7.000000
32
-19.000000
13
23.000000
23
7.000000
33
-19.000000
0
3DFACE
8
0
62
1
10
31.000000
20
7.000000
30
-29.000000
11
23.000000
21
7.000000
31
-19.000000
12
51.000000
22
8.000000
32
-27.000000
13
51.000000
23
8.000000
33
-27.000000
0
3DFACE
8
0
62
1
10
35.000000
20
8.000000
30
-38.000000
11
31.000000
21
7.000000
31
-29.000000
12
51.000000
22
8.000000
32
-27.000000
13
51.000000
23
8.000000
33
-27.000000
0
3DFACE
8
0
62
1
10
51.000000
20
8.000000
30
-27.000000
11
49.000000
21
8.000000
31
-39.000000
12
35.000000
22
8.000000
32
-38.000000
13
35.000000
23
8.000000
33
-38.000000
0
3DFACE
8
0
62
1
10
49.000000
20
8.000000
30
-39.000000
11
46.000000
21
6.000000
31
-53.000000
12
38.000000
22
6.000000
32
-50.000000
13
38.000000
23
6.000000
33
-50.000000
0
3DFACE
8
0
62
1
10
38.000000
20
6.000000
30
-50.000000
11
35.000000
21
8.000000
31
-38.000000
12
49.000000
22
8.000000
32
-39.000000
13
49.000000
23
8.000000
33
-39.000000
0
3DFACE
8
0
62
1
10
36.000000
20
29.000000
30
-64.000000
11
38.000000
21
6.000000
31
-50.000000
12
46.000000
22
6.000000
32
-53.000000
13
46.000000
23
6.000000
33
-53.000000
0
3DFACE
8
0
62
1
10
-14.000000
20
8.000000
30
-55.000000
11
3.000000
21
6.000000
31
-52.000000
12
0.000000
22
31.000000
32
-64.000000
13
0.000000
23
31.000000
33
-64.000000
0
3DFACE
8
0
62
1
10
-14.000000
20
8.000000
30
-55.000000
11
-1.000000
21
6.000000
31
-42.000000
12
3.000000
22
6.000000
32
-52.000000
13
3.000000
23
6.000000
33
-52.000000
0
3DFACE
8
0
62
1
10
-14.000000
20
8.000000
30
-55.000000
11
-11.000000
21
6.000000
31
-35.000000
12
-1.000000
22
6.000000
32
-42.000000
13
-1.000000
23
6.000000
33
-42.000000
0
3DFACE
8
0
62
1
10
-14.000000
20
8.000000
30
-55.000000
11
-30.000000
21
8.000000
31
-50.000000
12
-11.000000
22
6.000000
32
-35.000000
13
-11.000000
23
6.000000
33
-35.000000
0
3DFACE
8
0
62
1
10
-30.000000
20
8.000000
30
-50.000000
11
-22.000000
21
8.000000
31
-26.000000
12
-11.000000
22
6.000000
32
-35.000000
13
-11.000000
23
6.000000
33
-35.000000
0
3DFACE
8
0
62
1
10
-22.000000
20
8.000000
30
-26.000000
11
-30.000000
21
8.000000
31
-50.000000
12
-48.000000
22
8.000000
32
-43.000000
13
-48.000000
23
8.000000
33
-43.000000
0
3DFACE
8
0
62
1
10
-22.000000
20
8.000000
30
-26.000000
11
-48.000000
21
8.000000
31
-43.000000
12
-54.000000
22
8.000000
32
-24.000000
13
-54.000000
23
8.000000
33
-24.000000
0
3DFACE
8
0
62
1
10
-54.000000
20
8.000000
30
-24.000000
11
-23.000000
21
8.000000
31
-14.000000
12
-22.000000
22
8.000000
32
-26.000000
13
-22.000000
23
8.000000
33
-26.000000
0
3DFACE
8
0
62
1
10
-23.000000
20
8.000000
30
-14.000000
11
-54.000000
21
8.000000
31
-24.000000
12
-64.000000
22
8.000000
32
-13.000000
13
-64.000000
23
8.000000
33
-13.000000
0
3DFACE
8
0
62
1
10
-64.000000
20
8.000000
30
-13.000000
11
-18.000000
21
6.000000
31
-4.000000
12
-23.000000
22
8.000000
32
-14.000000
13
-23.000000
23
8.000000
33
-14.000000
0
3DFACE
8
0
62
1
10
-18.000000
20
6.000000
30
-4.000000
11
-64.000000
21
8.000000
31
-13.000000
12
-64.000000
22
8.000000
32
-5.000000
13
-64.000000
23
8.000000
33
-5.000000
0
3DFACE
8
0
62
1
10
-18.000000
20
6.000000
30
-4.000000
11
-64.000000
21
8.000000
31
-5.000000
12
-51.000000
22
8.000000
32
2.000000
13
-51.000000
23
8.000000
33
2.000000
0
3DFACE
8
0
62
1
10
-51.000000
20
8.000000
30
2.000000
11
-17.000000
21
13.000000
31
5.000000
12
-18.000000
22
6.000000
32
-4.000000
13
-18.000000
23
6.000000
33
-4.000000
0
3DFACE
8
0
62
1
10
-17.000000
20
13.000000
30
5.000000
11
-51.000000
21
8.000000
31
2.000000
12
-41.000000
22
13.000000
32
13.000000
13
-41.000000
23
13.000000
33
13.000000
0
3DFACE
8
0
62
1
10
-41.000000
20
13.000000
30
13.000000
11
-22.000000
21
13.000000
31
12.000000
12
-17.000000
22
13.000000
32
5.000000
13
-17.000000
23
13.000000
33
5.000000
0
3DFACE
8
0
62
1
10
-41.000000
20
13.000000
30
13.000000
11
-25.000000
21
17.000000
31
23.000000
12
-22.000000
22
13.000000
32
12.000000
13
-22.000000
23
13.000000
33
12.000000
0
3DFACE
8
0
62
1
10
-25.000000
20
17.000000
30
23.000000
11
-41.000000
21
13.000000
31
13.000000
12
-37.000000
22
17.000000
32
24.000000
13
-37.000000
23
17.000000
33
24.000000
0
3DFACE
8
0
62
1
10
-37.000000
20
17.000000
30
24.000000
11
-24.000000
21
18.000000
31
41.000000
12
-25.000000
22
17.000000
32
23.000000
13
-25.000000
23
17.000000
33
23.000000
0
3DFACE
8
0
62
1
10
-24.000000
20
18.000000
30
41.000000
11
-37.000000
21
17.000000
31
24.000000
12
-37.000000
22
17.000000
32
35.000000
13
-37.000000
23
17.000000
33
35.000000
0
3DFACE
8
0
62
1
10
-24.000000
20
18.000000
30
41.000000
11
-37.000000
21
17.000000
31
35.000000
12
-34.000000
22
17.000000
32
45.000000
13
-34.000000
23
17.000000
33
45.000000
0
3DFACE
8
0
62
1
10
-34.000000
20
17.000000
30
45.000000
11
-19.000000
21
20.000000
31
49.000000
12
-24.000000
22
18.000000
32
41.000000
13
-24.000000
23
18.000000
33
41.000000
0
3DFACE
8
0
62
1
10
-19.000000
20
20.000000
30
49.000000
11
-34.000000
21
17.000000
31
45.000000
12
-26.000000
22
20.000000
32
53.000000
13
-26.000000
23
20.000000
33
53.000000
0
3DFACE
8
0
62
1
10
-26.000000
20
20.000000
30
53.000000
11
-11.000000
21
53.000000
31
64.000000
12
-19.000000
22
20.000000
32
49.000000
13
-19.000000
23
20.000000
33
49.000000
0
3DFACE
8
0
62
1
10
36.000000
20
29.000000
30
-64.000000
11
46.000000
21
6.000000
31
-53.000000
12
53.000000
22
29.000000
32
-60.000000
13
53.000000
23
29.000000
33
-60.000000
0
3DFACE
8
0
62
1
10
59.000000
20
47.000000
30
-39.000000
11
53.000000
21
29.000000
31
-60.000000
12
46.000000
22
6.000000
32
-53.000000
13
46.000000
23
6.000000
33
-53.000000
0
3DFACE
8
0
62
1
10
46.000000
20
6.000000
30
-53.000000
11
49.000000
21
8.000000
31
-39.000000
12
59.000000
22
47.000000
32
-39.000000
13
59.000000
23
47.000000
33
-39.000000
0
3DFACE
8
0
62
1
10
49.000000
20
8.000000
30
-39.000000
11
51.000000
21
8.000000
31
-27.000000
12
59.000000
22
47.000000
32
-39.000000
13
59.000000
23
47.000000
33
-39.000000
0
3DFACE
8
0
62
1
10
51.000000
20
8.000000
30
-27.000000
11
60.000000
21
40.000000
31
-18.000000
12
59.000000
22
47.000000
32
-39.000000
13
59.000000
23
47.000000
33
-39.000000
0
3DFACE
8
0
62
1
10
51.000000
20
8.000000
30
-27.000000
11
51.000000
21
8.000000
31
-10.000000
12
60.000000
22
40.000000
32
-18.000000
13
60.000000
23
40.000000
33
-18.000000
0
3DFACE
8
0
62
1
10
51.000000
20
8.000000
30
-10.000000
11
57.000000
21
33.000000
31
2.000000
12
60.000000
22
40.000000
32
-18.000000
13
60.000000
23
40.000000
33
-18.000000
0
3DFACE
8
0
62
1
10
51.000000
20
8.000000
30
-10.000000
11
40.000000
21
10.000000
31
4.000000
12
57.000000
22
33.000000
32
2.000000
13
57.000000
23
33.000000
33
2.000000
0
3DFACE
8
0
62
1
10
46.000000
20
33.000000
30
12.000000
11
57.000000
21
33.000000
31
2.000000
12
40.000000
22
10.000000
32
4.000000
13
40.000000
23
10.000000
33
4.000000
0
3DFACE
8
0
62
1
10
40.000000
20
10.000000
30
4.000000
11
29.000000
21
10.000000
31
9.000000
12
28.000000
22
33.000000
32
19.000000
13
28.000000
23
33.000000
33
19.000000
0
3DFACE
8
0
62
1
10
40.000000
20
10.000000
30
4.000000
11
28.000000
21
33.000000
31
19.000000
12
46.000000
22
33.000000
32
12.000000
13
46.000000
23
33.000000
33
12.000000
0
3DFACE
8
0
62
1
10
29.000000
20
10.000000
30
9.000000
11
20.000000
21
12.000000
31
12.000000
12
28.000000
22
33.000000
32
19.000000
13
28.000000
23
33.000000
33
19.000000
0
3DFACE
8
0
62
1
10
20.000000
20
12.000000
30
12.000000
11
13.000000
21
15.000000
31
17.000000
12
28.000000
22
33.000000
32
19.000000
13
28.000000
23
33.000000
33
19.000000
0
3DFACE
8
0
62
1
10
23.000000
20
49.000000
30
39.000000
11
28.000000
21
33.000000
31
19.000000
12
13.000000
22
15.000000
32
17.000000
13
13.000000
23
15.000000
33
17.000000
0
3DFACE
8
0
62
1
10
13.000000
20
15.000000
30
17.000000
11
9.000000
21
18.000000
31
27.000000
12
23.000000
22
49.000000
32
39.000000
13
23.000000
23
49.000000
33
39.000000
0
3DFACE
8
0
62
1
10
28.000000
20
52.000000
30
64.000000
11
23.000000
21
49.000000
31
39.000000
12
13.000000
22
29.000000
32
48.000000
13
13.000000
23
29.000000
33
48.000000
0
3DFACE
8
0
62
1
10
28.000000
20
52.000000
30
64.000000
11
13.000000
21
29.000000
31
48.000000
12
3.000000
22
52.000000
32
64.000000
13
3.000000
23
52.000000
33
64.000000
0
3DFACE
8
0
62
1
10
11.000000
20
24.000000
30
41.000000
11
13.000000
21
29.000000
31
48.000000
12
23.000000
22
49.000000
32
39.000000
13
23.000000
23
49.000000
33
39.000000
0
3DFACE
8
0
62
1
10
9.000000
20
21.000000
30
34.000000
11
11.000000
21
24.000000
31
41.000000
12
23.000000
22
49.000000
32
39.000000
13
23.000000
23
49.000000
33
39.000000
0
3DFACE
8
0
62
1
10
9.000000
20
18.000000
30
27.000000
11
9.000000
21
21.000000
31
34.000000
12
23.000000
22
49.000000
32
39.000000
13
23.000000
23
49.000000
33
39.000000
0
3DFACE
8
0
62
1
10
28.000000
20
33.000000
30
19.000000
11
23.000000
21
49.000000
31
39.000000
12
44.000000
22
72.000000
32
41.000000
13
44.000000
23
72.000000
33
41.000000
0
3DFACE
8
0
62
1
10
23.000000
20
49.000000
30
39.000000
11
28.000000
21
52.000000
31
64.000000
12
44.000000
22
72.000000
32
41.000000
13
44.000000
23
72.000000
33
41.000000
0
3DFACE
8
0
62
1
10
28.000000
20
33.000000
30
19.000000
11
44.000000
21
72.000000
31
41.000000
12
46.000000
22
33.000000
32
12.000000
13
46.000000
23
33.000000
33
12.000000
0
3DFACE
8
0
62
1
10
-33.000000
20
44.000000
30
-62.000000
11
-14.000000
21
8.000000
31
-55.000000
12
0.000000
22
31.000000
32
-64.000000
13
0.000000
23
31.000000
33
-64.000000
0
3DFACE
8
0
62
1
10
-30.000000
20
8.000000
30
-50.000000
11
-14.000000
21
8.000000
31
-55.000000
12
-33.000000
22
44.000000
32
-62.000000
13
-33.000000
23
44.000000
33
-62.000000
0
3DFACE
8
0
62
1
10
-33.000000
20
44.000000
30
-62.000000
11
-48.000000
21
8.000000
31
-43.000000
12
-30.000000
22
8.000000
32
-50.000000
13
-30.000000
23
8.000000
33
-50.000000
0
3DFACE
8
0
62
1
10
-48.000000
20
8.000000
30
-43.000000
11
-33.000000
21
44.000000
31
-62.000000
12
-59.000000
22
44.000000
32
-53.000000
13
-59.000000
23
44.000000
33
-53.000000
0
3DFACE
8
0
62
1
10
-48.000000
20
8.000000
30
-43.000000
11
-59.000000
21
44.000000
31
-53.000000
12
-64.000000
22
44.000000
32
-31.000000
13
-64.000000
23
44.000000
33
-31.000000
0
3DFACE
8
0
62
1
10
-64.000000
20
44.000000
30
-31.000000
11
-54.000000
21
8.000000
31
-24.000000
12
-48.000000
22
8.000000
32
-43.000000
13
-48.000000
23
8.000000
33
-43.000000
0
3DFACE
8
0
62
1
10
-64.000000
20
44.000000
30
-31.000000
11
-64.000000
21
8.000000
31
-13.000000
12
-54.000000
22
8.000000
32
-24.000000
13
-54.000000
23
8.000000
33
-24.000000
0
3DFACE
8
0
62
1
10
-71.000000
20
44.000000
30
3.000000
11
-51.000000
21
8.000000
31
2.000000
12
-64.000000
22
8.000000
32
-5.000000
13
-64.000000
23
8.000000
33
-5.000000
0
3DFACE
8
0
62
1
10
-71.000000
20
44.000000
30
3.000000
11
-41.000000
21
13.000000
31
13.000000
12
-51.000000
22
8.000000
32
2.000000
13
-51.000000
23
8.000000
33
2.000000
0
3DFACE
8
0
62
1
10
-41.000000
20
13.000000
30
13.000000
11
-71.000000
21
44.000000
31
3.000000
12
-51.000000
22
53.000000
32
19.000000
13
-51.000000
23
53.000000
33
19.000000
0
3DFACE
8
0
62
1
10
-51.000000
20
53.000000
30
19.000000
11
-37.000000
21
17.000000
31
24.000000
12
-41.000000
22
13.000000
32
13.000000
13
-41.000000
23
13.000000
33
13.000000
0
3DFACE
8
0
62
1
10
-51.000000
20
53.000000
30
19.000000
11
-37.000000
21
17.000000
31
35.000000
12
-37.000000
22
17.000000
32
24.000000
13
-37.000000
23
17.000000
33
24.000000
0
3DFACE
8
0
62
1
10
-37.000000
20
17.000000
30
35.000000
11
-51.000000
21
53.000000
31
19.000000
12
-48.000000
22
53.000000
32
43.000000
13
-48.000000
23
53.000000
33
43.000000
0
3DFACE
8
0
62
1
10
-48.000000
20
53.000000
30
43.000000
11
-34.000000
21
17.000000
31
45.000000
12
-37.000000
22
17.000000
32
35.000000
13
-37.000000
23
17.000000
33
35.000000
0
3DFACE
8
0
62
1
10
-11.000000
20
53.000000
30
64.000000
11
-26.000000
21
20.000000
31
53.000000
12
-38.000000
22
56.000000
32
62.000000
13
-38.000000
23
56.000000
33
62.000000
0
3DFACE
8
0
62
1
10
-38.000000
20
56.000000
30
62.000000
11
-26.000000
21
20.000000
31
53.000000
12
-34.000000
22
17.000000
32
45.000000
13
-34.000000
23
17.000000
33
45.000000
0
3DFACE
8
0
62
1
10
-34.000000
20
17.000000
30
45.000000
11
-48.000000
21
53.000000
31
43.000000
12
-38.000000
22
56.000000
32
62.000000
13
-38.000000
23
56.000000
33
62.000000
0
3DFACE
8
0
62
1
10
-61.000000
20
62.000000
30
55.000000
11
-38.000000
21
56.000000
31
62.000000
12
-48.000000
22
53.000000
32
43.000000
13
-48.000000
23
53.000000
33
43.000000
0
3DFACE
8
0
62
1
10
-61.000000
20
62.000000
30
55.000000
11
-48.000000
21
53.000000
31
43.000000
12
-66.000000
22
89.000000
32
35.000000
13
-66.000000
23
89.000000
33
35.000000
0
3DFACE
8
0
62
1
10
-51.000000
20
53.000000
30
19.000000
11
-66.000000
21
89.000000
31
35.000000
12
-48.000000
22
53.000000
32
43.000000
13
-48.000000
23
53.000000
33
43.000000
0
3DFACE
8
0
62
1
10
-66.000000
20
89.000000
30
35.000000
11
-51.000000
21
53.000000
31
19.000000
12
-71.000000
22
44.000000
32
3.000000
13
-71.000000
23
44.000000
33
3.000000
0
3DFACE
8
0
62
1
10
53.004433
20
40.000000
30
15.996328
11
46.000000
21
33.000000
31
12.000000
12
44.000000
22
72.000000
32
41.000000
13
44.000000
23
72.000000
33
41.000000
0
3DFACE
8
0
62
1
10
57.000000
20
33.000000
30
2.000000
11
46.000000
21
33.000000
31
12.000000
12
53.004433
22
40.000000
32
15.996328
13
53.004433
23
40.000000
33
15.996328
0
ENDSEC
0
EOF
